<svg xmlns="http://www.w3.org/2000/svg" viewBox="0 0 5566.6 2253.65"><defs><style>.cls-1{fill:#5e6262;}.cls-2{fill:#ff7b0a;}.cls-2,.cls-3,.cls-4{opacity:0.98;}.cls-2,.cls-3,.cls-4,.cls-5,.cls-6{isolation:isolate;}.cls-3{fill:none;stroke:#0076ff;stroke-linejoin:round;stroke-width:7.5px;}.cls-4,.cls-6{fill:#0076ff;}.cls-6{font-size:133.21px;font-family:ArialMT, Arial;}</style></defs><title>force-logo_3</title><g id="Layer_2" data-name="Layer 2"><g id="Layer_1-2" data-name="Layer 1"><path id="path833" class="cls-1" d="M1018.4,0C453.59,8.87,0,510.76,0,1126.84s453.6,1118,1018.4,1126.81V1911.23c-417-9.07-750.79-390.39-750.79-857.66S601.41,205,1018.4,195.91Z"/><path id="path842" class="cls-2" d="M1031.4,272.4c-370.56,0-671,320.8-671,716.53h0c0,395.73,300.4,716.53,671,716.53s671-320.8,671-716.53S1402,272.4,1031.4,272.4Zm0,124.53c274.59,0,497.19,244.19,497.19,545.42h0c0,301.23-222.6,545.42-497.19,545.42S534.21,1243.58,534.21,942.35s222.6-545.42,497.19-545.42Z"/><rect id="rect848" class="cls-3" x="762.28" y="773.05" width="538.24" height="356.59"/><rect id="rect858" class="cls-4" x="1015.13" y="1126.27" width="32.54" height="63.14"/><rect id="rect860" class="cls-4" x="946.15" y="1182.39" width="170.5" height="22.43"/><g id="text864" class="cls-5"><text class="cls-6" transform="translate(936.44 998.47)">&lt;/&gt;</text></g><path class="cls-1" d="M2058.92,1054.24a77.12,77.12,0,0,1-35.87-8.35q-16.2-8.34-16.21-26V370.39q0-16.69,14.74-25.55A60.09,60.09,0,0,1,2053,336h344.87q17.68,0,25.55,14.74a64.11,64.11,0,0,1,7.86,30.46q0,18.68-8.35,32.91t-25.06,14.25H2111v225h152.29q16.69,0,25.06,12.78t8.35,29.47q0,13.77-7.86,27t-25.55,13.27H2111v284q0,17.69-16.21,26A77.14,77.14,0,0,1,2058.92,1054.24Z"/><path class="cls-1" d="M2690.7,1060.13q-61.9,0-111.52-21.61t-78.6-69.76q-29-48.13-29-127.73V555.11q0-79.59,29-127.73t78.6-69.76q49.61-21.6,112.5-21.62,61.91,0,112,21.62t79.59,69.76q29.47,48.15,29.47,127.73V841q0,79.58-29.47,127.73t-79.59,69.76Q2753.58,1060.14,2690.7,1060.13Zm0-92.36q55,0,86.46-30.95T2808.6,841V555.11q0-64.85-30.95-95.8t-86-30.95q-55,0-86,30.95t-30.95,95.8V841q0,64.85,30.46,95.79T2690.7,967.77Z"/><path class="cls-1" d="M3421.7,1057.19a34.57,34.57,0,0,1-23.09-8.85,74.4,74.4,0,0,1-17.19-21.61L3237,745.72h-98.25v274.13q0,16.71-16.21,25.55a77.17,77.17,0,0,1-71.73,0q-16.2-8.85-16.21-25.55V369.41a33,33,0,0,1,9.34-23.58q9.32-9.81,26-9.83h186.69q61.89,0,113,18.18t81.55,61.9q30.43,43.73,30.46,120.36,0,58.95-18.18,98.25t-49.13,62.4A208.88,208.88,0,0,1,3344.08,731l137.56,258.41a22,22,0,0,1,2.94,7.37,35.57,35.57,0,0,1,1,7.37q0,12.78-9.83,25.05a79.79,79.79,0,0,1-24.07,20.15A61.31,61.31,0,0,1,3421.7,1057.19Zm-283-395h117.91q55,0,87.93-26.53t32.92-90.4q0-63.86-32.92-90.39t-87.93-26.53H3138.73Z"/><path class="cls-1" d="M3788.18,1060.13q-58.95,0-108.57-21.61t-79.09-69.76Q3571,920.63,3571,841V555.11q0-79.59,29.48-127.73t79.58-69.76Q3730.22,336,3789.17,336q67.78,0,117.41,23.09T3984.2,422q28,39.79,28,91.87,0,33.42-12.77,43.72t-39.3,10.32q-23.58,0-37.34-8.35t-14.74-26a225,225,0,0,0-4.91-30.46,105.51,105.51,0,0,0-15.23-34.88Q3876.6,451,3854,439.66t-61.9-11.3q-57,0-87.44,30.95t-30.46,95.8V841q0,64.85,30.95,95.79t89.9,30.95q37.33,0,59.44-11.29t32.92-28.5a109.28,109.28,0,0,0,14.74-36.35q3.91-19.17,5.89-34.88,1-18.66,15.23-26.53t35.86-7.86q27.51,0,40.29,10.81t12.77,43.23q0,53.05-28,94.81t-78.11,65.34Q3856,1060.13,3788.18,1060.13Z"/><path class="cls-1" d="M4155.64,1054.24a60.09,60.09,0,0,1-31.44-8.84q-14.74-8.85-14.74-25.55V370.39q0-16.69,14.74-25.55a60.09,60.09,0,0,1,31.44-8.84h349.78q18.66,0,26.53,14.74a64.11,64.11,0,0,1,7.86,30.46q0,18.68-8.84,32.91t-25.55,14.25H4213.61v225h151.31q16.69,0,25.54,12.78a50.48,50.48,0,0,1,8.85,29.47q0,13.77-7.86,27t-26.53,13.27H4213.61v226h291.81q16.69,0,25.55,13.76t8.84,33.4a64,64,0,0,1-7.86,30.46q-7.87,14.74-26.53,14.74Z"/><path class="cls-1" d="M2006.35,1452.09a24,24,0,0,1-11.19-2.75,9.11,9.11,0,0,1-5.3-8.64V1176.92a9.72,9.72,0,0,1,4.71-8.83,18.84,18.84,0,0,1,10.21-2.95h138.56q5.89,0,8.64,4.71a19.26,19.26,0,0,1,2.75,9.82,19.57,19.57,0,0,1-2.95,10.6,9.38,9.38,0,0,1-8.44,4.71h-120.5v99.7h61.62a9.59,9.59,0,0,1,8.44,4.32,17,17,0,0,1,2.95,9.81,16.6,16.6,0,0,1-2.75,9q-2.74,4.32-8.64,4.32h-61.62V1440.7a9.16,9.16,0,0,1-5.11,8.64A23.64,23.64,0,0,1,2006.35,1452.09Z"/><path class="cls-1" d="M2258,1454.44q-24,0-43-8.44a65.7,65.7,0,0,1-30.22-27.08q-11.19-18.64-11.19-50.05V1250.72q0-31.41,11.19-50a65.78,65.78,0,0,1,30.22-27.09q19-8.43,43-8.44t43.18,8.44a65.61,65.61,0,0,1,30.42,27.09q11.19,18.64,11.19,50v118.15q0,31.41-11.19,50.05a65.53,65.53,0,0,1-30.42,27.08Q2281.91,1454.45,2258,1454.44Zm0-29.83q24.33,0,38.07-13.54t13.74-42.2V1250.72q0-28.65-13.74-42.2T2258,1195q-24.34,0-37.88,13.54t-13.54,42.2v118.15q0,28.65,13.54,42.2T2258,1424.61Z"/><path class="cls-1" d="M2548.05,1452.87a11.36,11.36,0,0,1-8.44-3.92,41.73,41.73,0,0,1-6.48-9l-58.88-115h-45.53v115.4a9.57,9.57,0,0,1-5.11,8.83,22.3,22.3,0,0,1-11.38,2.95,22.67,22.67,0,0,1-11.19-2.95,9.51,9.51,0,0,1-5.3-8.83V1176.53a10.31,10.31,0,0,1,3.34-7.85,13.41,13.41,0,0,1,8.44-3.54h71.83q23.94,0,43.77,7.27a64.31,64.31,0,0,1,31.6,24.33q11.78,17.09,11.78,46.91,0,24-7.66,39.65a60.33,60.33,0,0,1-21,24.53,86.13,86.13,0,0,1-29.83,12.36l58.09,110.31a16.85,16.85,0,0,1,1.18,2.94,9.42,9.42,0,0,1,.39,2.55,13.55,13.55,0,0,1-2.94,8.25,21.7,21.7,0,0,1-7.46,6.28A19.71,19.71,0,0,1,2548.05,1452.87Zm-119.33-155.44h50.63q24.34,0,39.26-11.78t14.91-39.64q0-27.87-14.91-39.45T2479.35,1195h-50.63Z"/><path class="cls-1" d="M2691.32,1454.44q-24,0-43.18-8.44a66.57,66.57,0,0,1-30.62-27.08q-11.39-18.64-11.38-50.05V1176.53a9.15,9.15,0,0,1,5.1-8.64,24.94,24.94,0,0,1,22.77,0,9.15,9.15,0,0,1,5.1,8.64v192.34q0,28.65,13.94,42.2t38.66,13.54q24.73,0,38.67-13.54t13.93-42.2V1176.53a9.15,9.15,0,0,1,5.1-8.64,24.94,24.94,0,0,1,22.77,0,9.15,9.15,0,0,1,5.1,8.64v192.34q0,31.41-11.38,50.05a66.43,66.43,0,0,1-30.81,27.08Q2715.65,1454.45,2691.32,1454.44Z"/><path class="cls-1" d="M2848.33,1452.09a22.62,22.62,0,0,1-11.19-2.95,9.51,9.51,0,0,1-5.3-8.83V1181.24q0-9,5.3-12.56a19.8,19.8,0,0,1,11.19-3.54,23.07,23.07,0,0,1,10.79,2.36,26.93,26.93,0,0,1,8.25,6.87,61.81,61.81,0,0,1,7.26,11.58l62,118.15,62-118.15a76.38,76.38,0,0,1,7.65-11.58,26.93,26.93,0,0,1,8.25-6.87,22.12,22.12,0,0,1,10.4-2.36,19.28,19.28,0,0,1,11.58,3.54q4.9,3.52,4.91,12.56v259.07a9.57,9.57,0,0,1-5.11,8.83,23.42,23.42,0,0,1-22.76,0,9.55,9.55,0,0,1-5.11-8.83V1234.23l-59.66,111.48a21.12,21.12,0,0,1-5.89,6.87,11.59,11.59,0,0,1-6.67,2.16,12.19,12.19,0,0,1-6.09-2q-3.33-2-6.08-7.07l-59.27-113v207.65a9.57,9.57,0,0,1-5.11,8.83A22.3,22.3,0,0,1,2848.33,1452.09Z"/><path class="cls-1" d="M3192.58,1452.09a24,24,0,0,1-11.19-2.75,9.11,9.11,0,0,1-5.3-8.64V1176.92a9.72,9.72,0,0,1,4.71-8.83,18.84,18.84,0,0,1,10.21-2.95h138.56c3.93,0,6.8,1.57,8.64,4.71a19.26,19.26,0,0,1,2.75,9.82,19.65,19.65,0,0,1-2.95,10.6,9.39,9.39,0,0,1-8.44,4.71H3209.06v99.7h61.63a9.6,9.6,0,0,1,8.44,4.32,17,17,0,0,1,2.94,9.81,16.67,16.67,0,0,1-2.74,9c-1.84,2.88-4.71,4.32-8.64,4.32h-61.63V1440.7a9.15,9.15,0,0,1-5.1,8.64A23.64,23.64,0,0,1,3192.58,1452.09Z"/><path class="cls-1" d="M3444.19,1454.44q-23.94,0-43-8.44a65.65,65.65,0,0,1-30.22-27.08q-11.19-18.64-11.19-50.05V1250.72q0-31.41,11.19-50a65.73,65.73,0,0,1,30.22-27.09q19-8.43,43-8.44t43.18,8.44a65.63,65.63,0,0,1,30.43,27.09q11.17,18.64,11.18,50v118.15q0,31.41-11.18,50.05a65.55,65.55,0,0,1-30.43,27.08Q3468.14,1454.45,3444.19,1454.44Zm0-29.83q24.34,0,38.08-13.54t13.74-42.2V1250.72q0-28.65-13.74-42.2T3444.19,1195q-24.33,0-37.88,13.54t-13.54,42.2v118.15q0,28.65,13.54,42.2T3444.19,1424.61Z"/><path class="cls-1" d="M3734.27,1452.87a11.35,11.35,0,0,1-8.43-3.92,41.73,41.73,0,0,1-6.48-9l-58.88-115h-45.54v115.4a9.56,9.56,0,0,1-5.1,8.83,22.3,22.3,0,0,1-11.38,2.95,22.62,22.62,0,0,1-11.19-2.95,9.51,9.51,0,0,1-5.3-8.83V1176.53a10.31,10.31,0,0,1,3.34-7.85,13.39,13.39,0,0,1,8.44-3.54h71.83q23.94,0,43.77,7.27a64.31,64.31,0,0,1,31.6,24.33q11.78,17.09,11.77,46.91,0,24-7.65,39.65a60.4,60.4,0,0,1-21,24.53,86.13,86.13,0,0,1-29.83,12.36l58.09,110.31a17.67,17.67,0,0,1,1.18,2.94,9.42,9.42,0,0,1,.39,2.55,13.55,13.55,0,0,1-2.94,8.25,21.7,21.7,0,0,1-7.46,6.28A19.72,19.72,0,0,1,3734.27,1452.87Zm-119.33-155.44h50.64q24.33,0,39.25-11.78t14.92-39.64q0-27.87-14.92-39.45T3665.58,1195h-50.64Z"/><path class="cls-1" d="M3953.3,1454.44a103.3,103.3,0,0,1-42-8.44q-19.23-8.43-30.62-27.28t-11.38-49.85V1250.72q0-31,11.58-49.86t30.81-27.28a103.51,103.51,0,0,1,42-8.44q26.68,0,45.53,9t29.05,24.53a61.89,61.89,0,0,1,10.2,34.74q0,11-4.12,14.53T4022,1251.5q-7.86,0-12-3.14a11,11,0,0,1-4.51-8.24,86.52,86.52,0,0,0-2.16-13.55,41,41,0,0,0-7.06-14.91q-5.31-7.26-15.31-12t-26.5-4.71q-25.12,0-38.66,13.54t-13.55,42.2v118.15q0,28.65,13.74,42.2t39.65,13.54q16.49,0,26.1-4.71t14.33-11.78a47.22,47.22,0,0,0,6.67-15.11,120.72,120.72,0,0,0,2.75-15.11c.26-3.93,1.83-6.8,4.71-8.64s6.8-2.75,11.78-2.75q8.23,0,12.36,3.73t4.12,14.72a62.87,62.87,0,0,1-10.4,35.14q-10.41,15.89-29.44,25.12T3953.3,1454.44Z"/><path class="cls-1" d="M4162.52,1454.44q-23.94,0-43-8.44a65.65,65.65,0,0,1-30.22-27.08q-11.19-18.64-11.19-50.05V1250.72q0-31.41,11.19-50a65.73,65.73,0,0,1,30.22-27.09q19-8.43,43-8.44t43.18,8.44a65.63,65.63,0,0,1,30.43,27.09q11.18,18.64,11.18,50v118.15q0,31.41-11.18,50.05A65.55,65.55,0,0,1,4205.7,1446Q4186.47,1454.45,4162.52,1454.44Zm0-29.83q24.34,0,38.08-13.54t13.74-42.2V1250.72q0-28.65-13.74-42.2T4162.52,1195q-24.33,0-37.88,13.54t-13.54,42.2v118.15q0,28.65,13.54,42.2T4162.52,1424.61Z"/><path class="cls-1" d="M4316.79,1452.09a22.62,22.62,0,0,1-11.19-2.95,9.51,9.51,0,0,1-5.3-8.83V1181.24q0-9,5.3-12.56a19.8,19.8,0,0,1,11.19-3.54,23.07,23.07,0,0,1,10.79,2.36,26.93,26.93,0,0,1,8.25,6.87,61.81,61.81,0,0,1,7.26,11.58l62,118.15,62-118.15a76.38,76.38,0,0,1,7.65-11.58,26.93,26.93,0,0,1,8.25-6.87,22.12,22.12,0,0,1,10.4-2.36,19.28,19.28,0,0,1,11.58,3.54q4.9,3.52,4.91,12.56v259.07a9.57,9.57,0,0,1-5.11,8.83,23.42,23.42,0,0,1-22.76,0,9.55,9.55,0,0,1-5.11-8.83V1234.23l-59.66,111.48a21.12,21.12,0,0,1-5.89,6.87,11.59,11.59,0,0,1-6.67,2.16,12.19,12.19,0,0,1-6.09-2q-3.35-2-6.08-7.07l-59.28-113v207.65a9.56,9.56,0,0,1-5.1,8.83A22.3,22.3,0,0,1,4316.79,1452.09Z"/><path class="cls-1" d="M4582.53,1452.09a22.62,22.62,0,0,1-11.19-2.95,9.51,9.51,0,0,1-5.3-8.83V1176.53a9.83,9.83,0,0,1,3.73-7.85,16.19,16.19,0,0,1,9.62-3.54h74.19q23.55,0,42.39,8.44a65.11,65.11,0,0,1,29.83,26.89q11,18.45,11,49.46v3.53q0,31-11.19,49.66a65.53,65.53,0,0,1-30.42,27.08q-19.24,8.44-43.18,8.44h-53v101.67a9.57,9.57,0,0,1-5.11,8.83A22.3,22.3,0,0,1,4582.53,1452.09ZM4599,1311.17h53q24.33,0,38.07-13.74t13.74-42v-4.71q0-28.65-13.74-42.2T4652,1195h-53Z"/><path class="cls-1" d="M4860.05,1454.44q-24,0-43.18-8.44a66.57,66.57,0,0,1-30.62-27.08q-11.39-18.64-11.38-50.05V1176.53a9.15,9.15,0,0,1,5.1-8.64,24.94,24.94,0,0,1,22.77,0,9.16,9.16,0,0,1,5.1,8.64v192.34q0,28.65,13.93,42.2t38.67,13.54q24.74,0,38.66-13.54t13.94-42.2V1176.53a9.15,9.15,0,0,1,5.1-8.64,24.94,24.94,0,0,1,22.77,0,9.15,9.15,0,0,1,5.1,8.64v192.34q0,31.41-11.38,50.05a66.41,66.41,0,0,1-30.82,27.08Q4884.38,1454.45,4860.05,1454.44Z"/><path class="cls-1" d="M5068.87,1452.09a22.27,22.27,0,0,1-11.38-2.95,9.56,9.56,0,0,1-5.1-8.83V1195.76H4988.8a9.52,9.52,0,0,1-8.25-4.71,19.29,19.29,0,0,1-3.14-11,20,20,0,0,1,2.75-10.21q2.74-4.71,8.64-4.71H5149c3.93,0,6.8,1.57,8.64,4.71a20,20,0,0,1,2.74,10.21,21.83,21.83,0,0,1-2.74,10.79,9.2,9.2,0,0,1-8.64,4.91h-63.59v244.55a9.58,9.58,0,0,1-5.1,8.83A22.33,22.33,0,0,1,5068.87,1452.09Z"/><path class="cls-1" d="M5207.83,1452.09a18.84,18.84,0,0,1-10.21-2.95,9.72,9.72,0,0,1-4.71-8.83V1176.92a9.72,9.72,0,0,1,4.71-8.83,18.84,18.84,0,0,1,10.21-2.95h139.74q6.27,0,8.83,4.71a20.37,20.37,0,0,1,2.55,9.82,19.65,19.65,0,0,1-2.94,10.6,9.39,9.39,0,0,1-8.44,4.71H5225.88v99.7h61.24a9.6,9.6,0,0,1,8.44,4.32,17,17,0,0,1,2.94,9.81,17.51,17.51,0,0,1-2.55,9q-2.55,4.32-8.83,4.32h-61.24v100.09h121.69a9.49,9.49,0,0,1,8.44,4.52,19.34,19.34,0,0,1,2.94,10.79,20.35,20.35,0,0,1-2.55,9.82q-2.55,4.71-8.83,4.71Z"/><path class="cls-1" d="M5547,1452.87a11.36,11.36,0,0,1-8.44-3.92,41.73,41.73,0,0,1-6.48-9l-58.88-115h-45.54v115.4a9.56,9.56,0,0,1-5.1,8.83,22.3,22.3,0,0,1-11.38,2.95,22.62,22.62,0,0,1-11.19-2.95,9.51,9.51,0,0,1-5.3-8.83V1176.53a10.31,10.31,0,0,1,3.34-7.85,13.39,13.39,0,0,1,8.44-3.54h71.83q23.94,0,43.77,7.27a64.31,64.31,0,0,1,31.6,24.33q11.78,17.09,11.77,46.91,0,24-7.65,39.65a60.4,60.4,0,0,1-21,24.53,86.13,86.13,0,0,1-29.83,12.36L5565,1430.5a17.67,17.67,0,0,1,1.18,2.94,9.42,9.42,0,0,1,.39,2.55,13.55,13.55,0,0,1-2.94,8.25,21.7,21.7,0,0,1-7.46,6.28A19.71,19.71,0,0,1,5547,1452.87Zm-119.34-155.44h50.64q24.33,0,39.25-11.78t14.92-39.64q0-27.87-14.92-39.45T5478.28,1195h-50.64Z"/><path class="cls-1" d="M2004.78,1923.13a18.92,18.92,0,0,1-10.21-2.94,9.75,9.75,0,0,1-4.71-8.84V1648a9.73,9.73,0,0,1,4.71-8.83,18.92,18.92,0,0,1,10.21-2.94h139.74q6.29,0,8.83,4.71a20.35,20.35,0,0,1,2.56,9.81,19.6,19.6,0,0,1-2.95,10.6,9.39,9.39,0,0,1-8.44,4.71H2022.84v99.7h61.23a9.6,9.6,0,0,1,8.44,4.32,17,17,0,0,1,2.95,9.81,17.5,17.5,0,0,1-2.56,9c-1.7,2.89-4.65,4.32-8.83,4.32h-61.23v100.1h121.68a9.5,9.5,0,0,1,8.44,4.51,19.36,19.36,0,0,1,2.95,10.8,20.35,20.35,0,0,1-2.56,9.81q-2.55,4.71-8.83,4.71Z"/><path class="cls-1" d="M2208.11,1923.13a22.74,22.74,0,0,1-11.19-2.94,9.53,9.53,0,0,1-5.3-8.84V1647.57q0-6.27,5.3-8.83a25.5,25.5,0,0,1,11.19-2.55,21.91,21.91,0,0,1,10.6,2.35,25.8,25.8,0,0,1,7.85,6.87,69.65,69.65,0,0,1,7.07,11.58L2331,1848.16V1647.57a9.12,9.12,0,0,1,5.3-8.64,24.16,24.16,0,0,1,11.19-2.74,23.75,23.75,0,0,1,11.38,2.74,9.16,9.16,0,0,1,5.11,8.64v263.78a9.59,9.59,0,0,1-5.11,8.84,22.39,22.39,0,0,1-11.38,2.94,17.87,17.87,0,0,1-11.58-4.32,36.54,36.54,0,0,1-8.83-10.6L2224.6,1710.77v200.58a9.59,9.59,0,0,1-5.11,8.84A22.39,22.39,0,0,1,2208.11,1923.13Z"/><path class="cls-1" d="M2501.72,1925.49q-23.94,0-43-8.44t-30.23-27.29q-11.18-18.84-11.18-49.85V1721.76q0-31,11.18-49.85t30.23-27.28q19-8.45,42.2-8.44,25.91,0,44.94,8.83t29.83,24.53q10.8,15.71,10.8,36.9,0,9.42-4.32,12.76t-12.17,3.33a23.48,23.48,0,0,1-11.38-2.55c-3.14-1.7-4.85-4.64-5.1-8.83a64.23,64.23,0,0,0-7.07-23.75,38.39,38.39,0,0,0-16.49-15.7q-11-5.68-28.26-5.69-24.34,0-37.88,13.54t-13.54,42.2v118.15q0,28.66,13.54,42.2t37.88,13.54q24.33,0,38.08-13.54t13.74-42.2v-40h-46.72a9.58,9.58,0,0,1-8.43-4.31,16.53,16.53,0,0,1,0-18.85,9.6,9.6,0,0,1,8.43-4.31h68.31c3.66,0,6.47,1.17,8.44,3.53a13,13,0,0,1,2.94,8.63v55.35q0,31-11.19,49.85a65.29,65.29,0,0,1-30.42,27.29Q2525.67,1925.5,2501.72,1925.49Z"/><path class="cls-1" d="M2651.67,1923.13a22.71,22.71,0,0,1-11.19-2.94,9.53,9.53,0,0,1-5.3-8.84V1647.57a9.12,9.12,0,0,1,5.3-8.64,24.1,24.1,0,0,1,11.19-2.74,23.75,23.75,0,0,1,11.38,2.74,9.16,9.16,0,0,1,5.1,8.64v263.78a9.58,9.58,0,0,1-5.1,8.84A22.39,22.39,0,0,1,2651.67,1923.13Z"/><path class="cls-1" d="M2740.77,1923.13a22.71,22.71,0,0,1-11.19-2.94,9.53,9.53,0,0,1-5.3-8.84V1647.57q0-6.27,5.3-8.83a25.47,25.47,0,0,1,11.19-2.55,21.94,21.94,0,0,1,10.6,2.35,25.91,25.91,0,0,1,7.85,6.87,69,69,0,0,1,7.06,11.58l97.35,191.17V1647.57a9.12,9.12,0,0,1,5.3-8.64,24.1,24.1,0,0,1,11.19-2.74,23.75,23.75,0,0,1,11.38,2.74,9.16,9.16,0,0,1,5.1,8.64v263.78a9.58,9.58,0,0,1-5.1,8.84,22.39,22.39,0,0,1-11.38,2.94,17.87,17.87,0,0,1-11.58-4.32,36.54,36.54,0,0,1-8.83-10.6l-102.46-197.44v200.58a9.58,9.58,0,0,1-5.1,8.84A22.39,22.39,0,0,1,2740.77,1923.13Z"/><path class="cls-1" d="M2967.65,1923.13a18.92,18.92,0,0,1-10.21-2.94,9.75,9.75,0,0,1-4.71-8.84V1648a9.73,9.73,0,0,1,4.71-8.83,18.92,18.92,0,0,1,10.21-2.94h139.74q6.27,0,8.83,4.71a20.34,20.34,0,0,1,2.55,9.81,19.6,19.6,0,0,1-2.94,10.6,9.39,9.39,0,0,1-8.44,4.71H2985.7v99.7h61.24a9.6,9.6,0,0,1,8.44,4.32,17,17,0,0,1,2.94,9.81,17.48,17.48,0,0,1-2.55,9c-1.7,2.89-4.65,4.32-8.83,4.32H2985.7v100.1h121.69a9.5,9.5,0,0,1,8.44,4.51,19.35,19.35,0,0,1,2.94,10.8,20.34,20.34,0,0,1-2.55,9.81q-2.55,4.71-8.83,4.71Z"/><path class="cls-1" d="M3169.41,1923.13a18.92,18.92,0,0,1-10.21-2.94,9.75,9.75,0,0,1-4.71-8.84V1648a9.73,9.73,0,0,1,4.71-8.83,18.92,18.92,0,0,1,10.21-2.94h139.74q6.27,0,8.83,4.71a20.34,20.34,0,0,1,2.55,9.81,19.6,19.6,0,0,1-2.94,10.6,9.39,9.39,0,0,1-8.44,4.71H3187.46v99.7h61.24a9.6,9.6,0,0,1,8.44,4.32,17,17,0,0,1,2.94,9.81,17.48,17.48,0,0,1-2.55,9c-1.7,2.89-4.65,4.32-8.83,4.32h-61.24v100.1h121.69a9.5,9.5,0,0,1,8.44,4.51,19.35,19.35,0,0,1,2.94,10.8,20.34,20.34,0,0,1-2.55,9.81q-2.55,4.71-8.83,4.71Z"/><path class="cls-1" d="M3508.56,1923.92a11.37,11.37,0,0,1-8.44-3.93,41.24,41.24,0,0,1-6.48-9l-58.88-115h-45.53v115.4a9.59,9.59,0,0,1-5.11,8.84,22.39,22.39,0,0,1-11.38,2.94,22.71,22.71,0,0,1-11.19-2.94,9.53,9.53,0,0,1-5.3-8.84V1647.57a10.33,10.33,0,0,1,3.34-7.85,13.38,13.38,0,0,1,8.44-3.53h71.83q23.94,0,43.77,7.26a64.27,64.27,0,0,1,31.6,24.34q11.78,17.07,11.78,46.9,0,24-7.66,39.65a60.34,60.34,0,0,1-21,24.53,86.34,86.34,0,0,1-29.83,12.37l58.09,110.3a17.67,17.67,0,0,1,1.18,2.94,9.44,9.44,0,0,1,.39,2.56,13.52,13.52,0,0,1-2.94,8.24,21.7,21.7,0,0,1-7.46,6.28A19.72,19.72,0,0,1,3508.56,1923.92Zm-119.33-155.45h50.63q24.34,0,39.26-11.78t14.91-39.64q0-27.87-14.91-39.45T3439.86,1666h-50.63Z"/><path class="cls-1" d="M3636.12,1926.27q-25.12,0-44-7.65t-29-18.06q-10.2-10.39-10.2-18.65a17.13,17.13,0,0,1,2.16-8,24.3,24.3,0,0,1,5.49-7.07,10.35,10.35,0,0,1,6.87-2.94q4.71,0,9.23,4.71t11.38,11.18a60.3,60.3,0,0,0,17.86,11.19q11,4.71,28.66,4.71,16.49,0,28.65-5.3a41.71,41.71,0,0,0,19-16.09q6.86-10.8,6.87-27.28,0-16.87-7.07-27.48a59,59,0,0,0-18.64-17.66,173.26,173.26,0,0,0-25.13-12.56l-27.47-11.19a115.06,115.06,0,0,1-25.32-14.13,63.71,63.71,0,0,1-18.45-21.79q-7.07-13.34-7.07-33.76,0-21.59,7.85-35.72a61.19,61.19,0,0,1,20.81-22.37,86.44,86.44,0,0,1,28.06-11.58,137.59,137.59,0,0,1,29.64-3.34,170.87,170.87,0,0,1,22.38,1.57,148,148,0,0,1,22.37,4.71,55.94,55.94,0,0,1,17.27,8q6.68,4.9,6.67,11.58a20.7,20.7,0,0,1-1.57,7.26,22.22,22.22,0,0,1-4.71,7.46,10.31,10.31,0,0,1-7.85,3.34q-4.32,0-10.59-3.73a98.8,98.8,0,0,0-16.69-7.46q-10.4-3.73-27.28-3.73a87.36,87.36,0,0,0-26.5,3.92q-12.36,3.93-19.62,13t-7.26,23.94q0,14.13,7.06,23.16a55.1,55.1,0,0,0,18.45,14.92,204.76,204.76,0,0,0,25.12,10.79q13.74,4.92,27.48,11.39a122.83,122.83,0,0,1,25.32,15.89A68.41,68.41,0,0,1,3715,1806q7.07,15.12,7.07,37.88,0,28.26-11.19,46.51a68.55,68.55,0,0,1-30.42,27.09Q3661.25,1926.28,3636.12,1926.27Z"/></g></g></svg>